<?xml version="1.0" standalone="no"?>
<!DOCTYPE svg PUBLIC "-//W3C//DTD SVG 20010904//EN"
 "http://www.w3.org/TR/2001/REC-SVG-20010904/DTD/svg10.dtd">
<svg version="1.0" xmlns="http://www.w3.org/2000/svg"
 width="339.000000pt" height="257.000000pt" viewBox="0 0 339.000000 257.000000"
 preserveAspectRatio="xMidYMid meet">

<g transform="translate(0.000000,257.000000) scale(0.100000,-0.100000)"
fill="#000000" stroke="none">
<path d="M1112 2444 c-12 -8 -22 -21 -22 -27 -1 -14 112 -490 117 -496 1 -2
21 4 43 14 36 16 39 21 32 44 -21 77 7 352 43 421 l13 25 12 -30 c13 -33 35
-169 46 -283 4 -40 10 -74 14 -77 8 -5 49 6 72 20 13 8 17 35 23 149 4 88 11
149 20 166 8 15 11 30 8 34 -4 3 3 6 15 6 33 0 51 -48 58 -152 3 -51 10 -97
15 -103 12 -13 11 -28 -2 -20 -7 5 -8 -5 -4 -32 11 -66 16 -76 28 -64 6 6 19
11 29 11 22 0 24 16 3 27 -7 5 -17 27 -21 51 -5 35 -4 41 8 37 29 -11 3 195
-32 253 -36 58 -91 37 -134 -51 l-23 -49 -17 44 c-42 104 -109 127 -176 60
-31 -31 -40 -50 -55 -115 -9 -43 -18 -77 -20 -75 -2 2 -8 44 -14 93 -11 83
-30 135 -49 135 -4 0 -18 -7 -30 -16z m88 -365 c0 -44 -19 -25 -27 27 -6 36
-5 38 10 22 9 -9 17 -31 17 -49z"/>
<path d="M1969 2419 c-39 -42 -159 -222 -192 -288 -40 -82 -33 -121 23 -121
20 0 32 13 64 66 37 62 40 65 70 59 71 -15 68 -8 60 -99 -6 -71 -4 -84 10 -89
38 -15 56 21 56 114 0 26 6 41 23 53 20 14 21 17 5 29 -14 11 -16 30 -11 148
l5 134 -28 13 c-41 18 -53 15 -85 -19z m44 -176 c-5 -66 -8 -73 -27 -72 -57 2
-58 10 -14 82 22 37 42 66 43 65 2 -2 1 -36 -2 -75z"/>
<path d="M2325 2292 c-81 -39 -104 -83 -112 -217 -3 -49 -9 -97 -14 -106 -13
-26 -46 -29 -74 -7 -25 19 -25 19 -25 0 0 -34 11 -52 41 -67 38 -20 68 -19
106 5 52 31 64 60 74 172 10 119 24 146 87 166 36 12 46 12 73 -2 41 -20 39
-21 39 14 0 37 -24 51 -99 56 -41 4 -66 0 -96 -14z"/>
<path d="M2554 2112 c-59 -37 -80 -77 -114 -220 -7 -26 -20 -48 -35 -58 -23
-15 -27 -15 -50 0 -14 9 -25 22 -25 29 0 8 -3 8 -9 -2 -9 -15 -7 -30 11 -68
14 -28 62 -45 105 -37 55 10 86 51 117 155 35 116 64 149 129 149 30 0 53 -7
71 -21 22 -17 27 -18 32 -5 10 25 0 48 -29 70 -41 30 -160 35 -203 8z"/>
<path d="M680 2090 c-8 -15 -11 -48 -8 -91 l5 -67 -39 25 c-23 16 -58 28 -88
31 -47 4 -50 3 -70 -29 -28 -45 -23 -123 13 -204 l27 -60 -57 60 c-102 108
-132 121 -151 65 -10 -27 -5 -32 185 -200 107 -95 199 -168 203 -163 5 4 16
21 24 37 15 29 14 30 -29 79 -55 61 -109 148 -152 246 -33 76 -41 111 -24 111
15 0 95 -76 181 -174 46 -53 88 -96 92 -96 4 0 19 18 34 39 l25 39 -63 94
c-91 134 -124 213 -94 224 23 9 78 -34 138 -108 31 -37 58 -65 60 -62 3 2 11
-3 19 -13 9 -11 10 -14 2 -9 -23 13 -13 -5 22 -41 l35 -36 19 24 c21 25 14 44
-16 44 -8 0 -27 16 -42 34 -14 19 -20 32 -13 27 26 -16 10 15 -38 73 -62 75
-108 110 -153 118 -29 4 -37 2 -47 -17z m-103 -493 c7 -5 18 -17 23 -28 16
-29 -4 -24 -42 11 -27 24 -29 29 -13 27 11 -1 26 -6 32 -10z"/>
<path d="M2875 1859 c-111 -25 -247 -65 -302 -89 -73 -33 -92 -60 -68 -96 8
-13 18 -24 22 -24 4 0 37 10 75 22 l68 22 30 -29 c37 -35 37 -45 4 -76 -14
-13 -39 -40 -55 -61 -27 -33 -28 -38 -13 -52 8 -9 19 -16 24 -16 5 0 33 23 63
50 37 34 63 50 81 50 23 0 25 3 17 18 -8 15 -2 27 35 63 25 24 68 69 95 100
47 55 49 58 35 84 -24 46 -38 50 -111 34z m-45 -154 l-55 -56 -22 26 c-13 14
-23 30 -23 34 0 6 116 46 145 50 5 0 -15 -24 -45 -54z"/>
<path d="M1350 1682 c0 -7 7 -26 15 -43 11 -19 15 -50 13 -87 l-3 -56 -152
-45 c-84 -24 -151 -46 -149 -48 4 -4 53 9 234 63 l82 25 0 55 0 55 26 -20 c15
-12 36 -21 48 -20 17 1 15 3 -8 9 -39 12 -66 38 -87 85 -10 22 -19 34 -19 27z"/>
<path d="M2151 1664 c0 -11 3 -14 6 -6 3 7 2 16 -1 19 -3 4 -6 -2 -5 -13z"/>
<path d="M1933 1653 c8 -10 34 -49 56 -88 23 -38 41 -65 41 -60 0 16 -93 165
-104 165 -5 0 -2 -8 7 -17z"/>
<path d="M2211 1651 c-2 -43 36 -106 77 -129 54 -30 75 -56 83 -105 l6 -42 2
39 c1 40 -18 63 -109 136 -22 18 -36 41 -45 75 -8 30 -14 40 -14 26z"/>
<path d="M2037 1615 c9 -19 18 -33 21 -31 4 5 -26 66 -33 66 -3 0 3 -16 12
-35z"/>
<path d="M2176 1595 c17 -50 16 -65 -10 -95 -14 -18 -26 -36 -26 -41 0 -14
-38 -11 -43 4 -2 7 -3 6 -3 -3 1 -8 11 -16 23 -18 16 -2 26 5 37 26 8 15 22
34 30 41 20 17 20 49 0 81 -10 17 -13 18 -8 5z"/>
<path d="M231 1546 c-20 -23 -31 -77 -21 -96 13 -24 170 -130 259 -174 83 -42
122 -47 151 -21 26 23 52 113 48 162 l-3 38 -21 -60 c-13 -37 -27 -61 -38 -63
-23 -5 -78 29 -225 137 -68 50 -127 91 -131 91 -4 0 -13 -6 -19 -14z"/>
<path d="M2071 1535 c1 -19 18 -51 18 -35 0 8 -4 22 -9 30 -5 8 -9 11 -9 5z"/>
<path d="M2890 1509 c-78 -15 -150 -57 -167 -96 -18 -45 -7 -78 39 -116 39
-32 76 -37 163 -23 l50 8 22 -39 c13 -21 23 -32 23 -24 0 11 3 11 16 0 15 -12
16 -11 10 11 -4 14 -25 60 -47 102 -23 46 -35 79 -29 83 14 9 100 -5 132 -21
15 -8 34 -24 43 -36 16 -23 16 -23 31 -3 24 31 11 85 -27 117 -52 44 -150 58
-259 37z m44 -126 c-4 -16 -9 -31 -13 -34 -10 -10 -94 -17 -120 -10 -21 6 -22
8 -8 19 20 17 106 51 130 52 14 0 16 -5 11 -27z"/>
<path d="M2036 1475 c3 -11 12 -47 20 -80 13 -56 14 -57 9 -13 -2 26 -11 62
-20 80 -8 18 -13 24 -9 13z"/>
<path d="M2205 1465 c-16 -14 -25 -25 -19 -25 6 0 19 9 30 21 10 11 26 18 36
16 10 -3 18 -1 18 4 0 17 -35 8 -65 -16z"/>
<path d="M2260 1454 c0 -19 -62 -74 -83 -74 -11 0 -18 -3 -14 -6 14 -14 56 8
82 42 15 19 24 38 21 41 -3 4 -6 2 -6 -3z"/>
<path d="M2310 1443 c18 -8 11 -59 -13 -94 -12 -19 -38 -42 -57 -51 -19 -10
-27 -18 -18 -18 24 0 83 54 98 89 14 34 10 73 -8 77 -7 1 -8 0 -2 -3z"/>
<path d="M1335 1425 c-36 -17 -65 -39 -65 -50 0 -5 11 2 25 15 13 12 46 29 72
36 30 8 38 13 23 13 -14 0 -38 -6 -55 -14z"/>
<path d="M1470 1384 l0 -35 -140 3 c-77 2 -140 0 -140 -4 0 -20 92 -47 175
-52 l90 -5 -100 12 c-162 21 -165 36 -7 37 l132 0 0 40 c0 22 -2 40 -5 40 -3
0 -5 -16 -5 -36z"/>
<path d="M1523 1378 c1 -23 7 -33 20 -34 11 -1 12 0 3 3 -8 2 -17 17 -20 34
-6 28 -6 28 -3 -3z"/>
<path d="M2121 1401 c-16 -10 -8 -41 11 -41 9 0 9 3 -2 10 -13 9 -12 12 4 25
21 16 10 21 -13 6z"/>
<path d="M1001 1374 c-17 -14 -31 -33 -31 -42 0 -12 4 -9 13 8 7 14 28 33 47
42 19 10 27 18 18 18 -9 0 -30 -12 -47 -26z"/>
<path d="M2351 1343 c-10 -26 -10 -27 4 -9 8 11 15 23 15 28 0 15 -7 8 -19
-19z"/>
<path d="M1155 1340 c-3 -6 1 -7 9 -4 18 7 21 14 7 14 -6 0 -13 -4 -16 -10z"/>
<path d="M2170 1321 c-13 -33 -7 -52 18 -50 15 1 15 2 0 6 -21 5 -22 16 -7 45
6 11 9 22 6 24 -2 3 -10 -9 -17 -25z"/>
<path d="M1022 1328 c-29 -29 3 -68 41 -50 21 10 20 10 -8 9 -24 -2 -30 2 -30
18 0 15 9 22 35 26 35 6 35 6 5 8 -17 0 -36 -4 -43 -11z"/>
<path d="M2038 1282 c-10 -26 -35 -76 -57 -110 l-41 -62 -48 0 c-54 0 -82 -20
-82 -58 0 -34 37 -52 105 -50 l60 1 -65 6 c-76 7 -90 14 -90 45 0 34 19 46 72
46 45 0 50 3 79 43 37 49 92 162 87 177 -2 6 -11 -11 -20 -38z"/>
<path d="M2091 1314 c0 -11 3 -14 6 -6 3 7 2 16 -1 19 -3 4 -6 -2 -5 -13z"/>
<path d="M1111 1297 c-13 -21 -12 -21 5 -5 10 10 16 20 13 22 -3 3 -11 -5 -18
-17z"/>
<path d="M2294 1239 c-19 -39 -34 -73 -32 -75 2 -2 21 30 41 71 20 41 35 75
32 75 -3 0 -21 -32 -41 -71z"/>
<path d="M161 1272 c-11 -27 -41 -171 -41 -198 0 -8 10 -14 23 -14 12 0 87
-21 167 -46 80 -25 164 -48 187 -51 40 -5 43 -4 54 23 18 47 22 90 14 151 -8
64 -17 55 -29 -29 -4 -27 -9 -48 -12 -48 -3 0 -35 7 -71 17 l-66 16 7 69 c4
41 2 68 -3 68 -11 0 -31 -63 -31 -97 0 -13 -3 -23 -7 -23 -4 0 -45 12 -91 27
l-84 28 5 62 c7 68 -4 89 -22 45z"/>
<path d="M963 1265 c0 -22 2 -30 4 -17 2 12 2 30 0 40 -3 9 -5 -1 -4 -23z"/>
<path d="M1468 1253 c5 -59 10 -63 11 -10 1 26 -3 47 -7 47 -4 0 -6 -17 -4
-37z"/>
<path d="M1524 1240 c1 -35 5 -45 19 -46 11 -1 12 0 3 3 -9 2 -16 21 -19 46
l-4 42 1 -45z"/>
<path d="M2080 1281 c0 -9 30 -24 36 -18 2 1 -6 8 -16 15 -11 7 -20 8 -20 3z"/>
<path d="M1244 1249 c-37 -10 -59 -33 -49 -50 10 -16 70 -39 97 -38 20 1 21 2
3 6 -62 14 -85 26 -85 43 0 14 11 22 43 30 57 15 65 18 42 18 -11 0 -34 -4
-51 -9z"/>
<path d="M2380 1225 c-14 -8 -20 -14 -15 -14 6 0 21 6 35 14 14 8 21 14 15 14
-5 0 -21 -6 -35 -14z"/>
<path d="M1026 1222 c-2 -4 8 -8 22 -7 28 0 31 -10 17 -50 -3 -11 1 -7 10 8
13 22 14 31 4 43 -12 15 -45 19 -53 6z"/>
<path d="M2190 1157 c-24 -49 -46 -79 -69 -94 -19 -13 -29 -23 -23 -23 25 0
78 59 104 118 40 88 30 87 -12 -1z"/>
<path d="M953 1185 c0 -22 2 -30 4 -17 2 12 2 30 0 40 -3 9 -5 -1 -4 -23z"/>
<path d="M1131 1204 c0 -11 3 -14 6 -6 3 7 2 16 -1 19 -3 4 -6 -2 -5 -13z"/>
<path d="M2088 1204 c34 -15 52 -12 52 9 0 9 -3 8 -8 -1 -7 -10 -15 -10 -36
-2 -40 15 -46 11 -8 -6z"/>
<path d="M1233 1203 c9 -2 25 -2 35 0 9 3 1 5 -18 5 -19 0 -27 -2 -17 -5z"/>
<path d="M3215 1201 c-6 -5 -90 -12 -187 -15 -97 -3 -188 -10 -202 -16 -22 -8
-24 -14 -21 -54 4 -42 35 -135 55 -166 8 -12 10 -10 10 10 0 14 -5 43 -10 65
-11 49 -4 55 76 55 l61 0 13 -60 c18 -85 33 -87 28 -4 l-3 69 92 3 92 3 12
-61 c12 -63 25 -83 35 -55 8 20 -21 214 -33 226 -5 5 -13 5 -18 0z"/>
<path d="M1013 1160 c0 -25 2 -35 4 -22 2 12 2 32 0 45 -2 12 -4 2 -4 -23z"/>
<path d="M1338 1193 c23 -2 61 -2 85 0 23 2 4 4 -43 4 -47 0 -66 -2 -42 -4z"/>
<path d="M2026 1144 c-28 -44 -29 -74 -2 -74 8 0 31 24 52 53 20 28 30 46 21
38 -9 -7 -26 -28 -38 -47 -20 -34 -49 -46 -49 -21 0 7 12 30 26 50 14 21 24
40 22 42 -2 2 -16 -16 -32 -41z"/>
<path d="M1124 1075 c0 -49 1 -71 3 -48 2 23 2 64 0 90 -2 26 -3 8 -3 -42z"/>
<path d="M1393 1153 l77 -4 0 -34 c0 -32 -2 -34 -37 -38 l-38 -4 43 -1 42 -2
0 45 0 45 -82 -2 -83 -2 78 -3z"/>
<path d="M1524 1110 c1 -26 6 -35 19 -36 11 -1 12 0 3 3 -8 2 -17 19 -19 36
-4 31 -4 31 -3 -3z"/>
<path d="M2230 1095 c-28 -70 -57 -87 -165 -95 l-80 -7 70 -1 c104 -2 149 21
181 94 14 31 23 58 21 61 -3 2 -15 -21 -27 -52z"/>
<path d="M1053 1105 c0 -22 2 -30 4 -17 2 12 2 30 0 40 -3 9 -5 -1 -4 -23z"/>
<path d="M943 1095 c0 -22 2 -30 4 -17 2 12 2 30 0 40 -3 9 -5 -1 -4 -23z"/>
<path d="M1268 1123 c6 -2 18 -2 25 0 6 3 1 5 -13 5 -14 0 -19 -2 -12 -5z"/>
<path d="M2370 1126 c0 -3 9 -10 20 -16 11 -6 20 -8 20 -6 0 3 -9 10 -20 16
-11 6 -20 8 -20 6z"/>
<path d="M1207 1102 c-10 -10 -17 -21 -17 -25 0 -9 56 -37 72 -37 7 1 -3 8
-22 16 -25 11 -31 17 -21 23 11 7 11 9 0 14 -9 3 -6 8 11 15 15 7 19 11 9 11
-9 1 -23 -7 -32 -17z"/>
<path d="M1003 1060 c0 -25 2 -35 4 -22 2 12 2 32 0 45 -2 12 -4 2 -4 -23z"/>
<path d="M2311 1070 c14 -31 19 -36 19 -24 0 6 -7 19 -16 30 -14 18 -14 18 -3
-6z"/>
<path d="M1268 1073 c18 -2 45 -2 60 0 15 2 0 4 -33 4 -33 0 -45 -2 -27 -4z"/>
<path d="M1940 1070 c-18 -12 -2 -12 25 0 13 6 15 9 5 9 -8 0 -22 -4 -30 -9z"/>
<path d="M1870 1055 c0 -9 9 -15 23 -14 19 1 19 2 3 6 -15 4 -16 7 -5 14 11 7
11 9 -3 9 -10 0 -18 -7 -18 -15z"/>
<path d="M1042 1030 c0 -19 2 -27 5 -17 2 9 2 25 0 35 -3 9 -5 1 -5 -18z"/>
<path d="M932 1020 c0 -19 2 -27 5 -17 2 9 2 25 0 35 -3 9 -5 1 -5 -18z"/>
<path d="M1953 1043 c9 -2 25 -2 35 0 9 3 1 5 -18 5 -19 0 -27 -2 -17 -5z"/>
<path d="M1293 1033 c9 -2 25 -2 35 0 9 3 1 5 -18 5 -19 0 -27 -2 -17 -5z"/>
<path d="M1407 1023 c48 -3 63 -8 66 -21 3 -12 5 -11 6 6 1 21 -2 22 -66 20
l-68 -2 62 -3z"/>
<path d="M1522 1010 c0 -14 2 -19 5 -12 2 6 2 18 0 25 -3 6 -5 1 -5 -13z"/>
<path d="M1201 671 c-184 -74 -232 -102 -231 -135 1 -6 7 1 15 15 16 29 16 29
245 121 96 38 177 72 179 74 12 12 -32 -4 -208 -75z"/>
<path d="M2032 710 c0 -14 2 -19 5 -12 2 6 2 18 0 25 -3 6 -5 1 -5 -13z"/>
<path d="M2100 720 c0 -5 5 -10 10 -10 6 0 10 5 10 10 0 6 -4 10 -10 10 -5 0
-10 -4 -10 -10z"/>
<path d="M2181 684 c-1 -27 20 -44 100 -81 51 -24 68 -37 79 -62 7 -17 15 -30
17 -27 2 2 -3 18 -12 36 -12 23 -36 41 -93 68 -57 28 -78 43 -83 62 -6 22 -7
22 -8 4z"/>
<path d="M1422 663 c-24 -8 -41 -17 -39 -19 5 -5 69 16 82 27 11 11 10 11 -43
-8z"/>
<path d="M2016 665 c-3 -9 -34 -29 -69 -44 -61 -28 -107 -64 -107 -84 0 -5 10
3 22 18 12 15 49 40 82 55 58 26 95 55 84 66 -3 3 -8 -2 -12 -11z"/>
<path d="M1297 618 c-32 -11 -56 -22 -54 -24 4 -5 127 36 127 42 0 6 -11 4
-73 -18z"/>
<path d="M1380 575 c-36 -13 -60 -24 -54 -24 5 -1 41 10 80 23 38 14 62 24 54
24 -8 0 -44 -10 -80 -23z"/>
<path d="M1190 579 c-14 -6 -44 -8 -66 -4 -43 6 -55 -4 -53 -43 1 -10 4 -6 8
8 6 22 12 25 52 23 24 -2 58 4 74 11 34 16 23 20 -15 5z"/>
<path d="M1223 527 c-52 -20 -50 -28 3 -10 27 9 51 17 53 19 9 8 -25 2 -56 -9z"/>
<path d="M962 495 c0 -16 2 -22 5 -12 2 9 2 23 0 30 -3 6 -5 -1 -5 -18z"/>
<path d="M1032 508 c-14 -14 -16 -68 -3 -68 5 0 7 9 4 20 -3 11 -2 28 2 37 5
16 10 13 37 -17 30 -35 30 -35 8 -3 -26 40 -34 45 -48 31z"/>
<path d="M1100 514 c9 -3 20 -15 25 -27 11 -25 46 -30 53 -7 4 12 2 13 -9 3
-19 -19 -28 -16 -39 12 -6 15 -17 25 -27 24 -14 -1 -14 -2 -3 -5z"/>
<path d="M1480 480 c-8 -5 -10 -10 -5 -10 6 0 17 5 25 10 8 5 11 10 5 10 -5 0
-17 -5 -25 -10z"/>
<path d="M1415 460 c-13 -5 -14 -9 -5 -9 8 0 24 4 35 9 13 5 14 9 5 9 -8 0
-24 -4 -35 -9z"/>
<path d="M972 430 c0 -19 2 -27 5 -17 2 9 2 25 0 35 -3 9 -5 1 -5 -18z"/>
<path d="M1786 384 c-14 -43 -24 -79 -22 -81 2 -2 16 31 30 73 14 43 24 79 22
81 -2 2 -16 -31 -30 -73z"/>
<path d="M1358 443 c6 -2 18 -2 25 0 6 3 1 5 -13 5 -14 0 -19 -2 -12 -5z"/>
<path d="M2287 400 c-3 -30 -9 -73 -11 -95 -4 -31 -3 -28 6 10 13 59 16 64 29
45 9 -12 9 -11 4 5 -4 11 -11 36 -14 55 -7 34 -7 33 -14 -20z"/>
<path d="M1303 433 c9 -2 23 -2 30 0 6 3 -1 5 -18 5 -16 0 -22 -2 -12 -5z"/>
<path d="M1911 417 c-1 -37 -48 -127 -107 -207 -26 -36 -39 -58 -30 -50 23 18
86 111 116 170 20 39 24 42 31 25 7 -18 8 -17 7 5 0 14 -4 39 -8 55 l-8 30 -1
-28z"/>
<path d="M1188 424 c-3 -3 3 -28 14 -57 20 -51 21 -130 4 -182 -3 -11 0 -6 8
10 20 39 20 112 1 165 -21 58 -20 58 28 63 l42 4 -46 1 c-25 1 -48 0 -51 -4z"/>
<path d="M2035 419 c-4 -6 -5 -12 -2 -15 2 -3 7 2 10 11 7 17 1 20 -8 4z"/>
<path d="M1090 409 c-20 -7 -17 -7 13 -3 32 4 37 2 37 -15 0 -11 -4 -23 -10
-26 -5 -3 -9 -34 -8 -68 l2 -62 3 55 c2 30 8 65 15 77 12 25 5 53 -14 52 -7
-1 -24 -5 -38 -10z"/>
<path d="M2170 411 c0 -20 39 -51 63 -50 l22 2 -22 4 c-13 2 -32 16 -43 30
-11 14 -20 21 -20 14z"/>
<path d="M1037 403 c-10 -9 -8 -41 2 -47 5 -4 7 3 4 15 -4 12 0 25 8 30 8 5 9
9 3 9 -6 0 -14 -3 -17 -7z"/>
<path d="M2412 405 c0 -5 6 -26 13 -45 7 -19 14 -28 14 -20 0 8 -6 29 -14 45
-7 17 -13 26 -13 20z"/>
<path d="M982 360 c0 -19 2 -27 5 -17 2 9 2 25 0 35 -3 9 -5 1 -5 -18z"/>
<path d="M1968 363 c7 -3 16 -2 19 1 4 3 -2 6 -13 5 -11 0 -14 -3 -6 -6z"/>
<path d="M1073 275 c0 -33 2 -45 4 -27 2 18 2 45 0 60 -2 15 -4 0 -4 -33z"/>
<path d="M1932 310 c0 -14 4 -38 8 -55 7 -27 8 -27 8 -5 0 14 -4 39 -8 55 -7
27 -8 27 -8 5z"/>
<path d="M992 280 c0 -19 2 -27 5 -17 2 9 2 25 0 35 -3 9 -5 1 -5 -18z"/>
<path d="M2350 280 c6 -11 13 -20 16 -20 2 0 0 9 -6 20 -6 11 -13 20 -16 20
-2 0 0 -9 6 -20z"/>
<path d="M2255 211 c-6 -43 9 -140 20 -129 3 2 0 21 -6 42 -6 21 -8 60 -4 87
4 27 5 49 2 49 -3 0 -8 -22 -12 -49z"/>
<path d="M2400 206 c16 -25 35 -48 41 -52 6 -3 -6 17 -26 45 -45 63 -58 68
-15 7z"/>
<path d="M1002 210 c0 -19 2 -27 5 -17 2 9 2 25 0 35 -3 9 -5 1 -5 -18z"/>
<path d="M1133 165 c0 -33 2 -45 4 -27 2 18 2 45 0 60 -2 15 -4 0 -4 -33z"/>
<path d="M1953 175 c0 -27 2 -38 4 -22 2 15 2 37 0 50 -2 12 -4 0 -4 -28z"/>
<path d="M1083 150 c0 -30 2 -43 4 -28 2 16 2 40 0 56 -2 15 -4 2 -4 -28z"/>
<path d="M1012 140 c0 -19 2 -27 5 -17 2 9 2 25 0 35 -3 9 -5 1 -5 -18z"/>
<path d="M1193 110 c0 -30 2 -43 4 -28 2 16 2 40 0 55 -2 16 -4 3 -4 -27z"/>
<path d="M1938 105 c-3 -11 -9 -29 -13 -40 -3 -11 1 -7 10 8 9 16 15 33 12 40
-2 6 -6 3 -9 -8z"/>
<path d="M1022 75 c0 -16 2 -22 5 -12 2 9 2 23 0 30 -3 6 -5 -1 -5 -18z"/>
</g>
</svg>
